<?xml version="1.0" encoding="utf-8"?>
<!-- Generator: Adobe Illustrator 25.1.0, SVG Export Plug-In . SVG Version: 6.00 Build 0)  -->
<svg version="1.1" id="Layer_1" xmlns="http://www.w3.org/2000/svg" xmlns:xlink="http://www.w3.org/1999/xlink" x="0px" y="0px"
	 viewBox="0 0 73.3 73.3" style="enable-background:new 0 0 73.3 73.3;" xml:space="preserve">
<style type="text/css">
	.st0{clip-path:url(#SVGID_2_);}
	.st1{fill:#FFFFFF;}
</style>
<g id="Layer_2_1_">
	<g id="Layer_1-2">
		<g>
			<defs>
				<circle id="SVGID_1_" cx="36.6" cy="36.6" r="36.5"/>
			</defs>
			<clipPath id="SVGID_2_">
				<use xlink:href="#SVGID_1_"  style="overflow:visible;"/>
			</clipPath>
			<g class="st0">
				<path d="M36.6,73.3L36.6,73.3C16.4,73.3,0,56.9,0,36.6l0,0C0,16.4,16.4,0,36.6,0l0,0c20.2,0,36.6,16.4,36.6,36.6l0,0
					C73.3,56.9,56.9,73.3,36.6,73.3z"/>
			</g>
		</g>
		<path class="st1" d="M36.6,18.9c5.8,0,6.4,0,8.7,0.1c1.4,0,2.7,0.3,4,0.7c1.9,0.7,3.4,2.2,4.1,4.1c0.5,1.3,0.7,2.6,0.8,4
			c0.1,2.3,0.1,3,0.1,8.7s0,6.4-0.1,8.7c0,1.4-0.3,2.7-0.8,4c-0.7,1.9-2.2,3.4-4.1,4.1c-1.3,0.5-2.6,0.7-4,0.8
			c-2.3,0.1-3,0.1-8.7,0.1s-6.4,0-8.7-0.1c-1.4,0-2.7-0.3-4-0.8c-1.9-0.7-3.4-2.2-4.1-4.1c-0.5-1.3-0.7-2.6-0.8-4
			C19,43,19,42.3,19,36.6s0-6.4,0.1-8.7c0-1.4,0.3-2.7,0.8-4c0.7-1.9,2.2-3.4,4.1-4.1c1.3-0.5,2.6-0.7,4-0.7
			C30.2,19,30.9,18.9,36.6,18.9 M36.6,15.1c-5.9,0-6.6,0-8.9,0.1c-1.8,0-3.6,0.4-5.2,1c-1.4,0.5-2.7,1.4-3.8,2.5
			c-1.1,1.1-1.9,2.4-2.5,3.8c-0.6,1.7-1,3.4-1,5.2c-0.1,2.3-0.1,3-0.1,8.9s0,6.6,0.1,8.9c0,1.8,0.4,3.6,1,5.2
			c1.1,2.9,3.4,5.2,6.3,6.3c1.7,0.6,3.4,1,5.2,1c2.3,0.1,3,0.1,8.9,0.1s6.6,0,8.9-0.1c1.8,0,3.6-0.4,5.2-1c1.4-0.5,2.7-1.4,3.8-2.5
			c1.1-1.1,1.9-2.4,2.5-3.8c0.6-1.7,1-3.4,1-5.2c0.1-2.3,0.1-3,0.1-8.9s0-6.6-0.1-8.9c0-1.8-0.4-3.6-1-5.2c-1.1-2.9-3.4-5.2-6.3-6.3
			c-1.7-0.6-3.4-1-5.2-1C43.2,15.1,42.5,15.1,36.6,15.1L36.6,15.1z"/>
		<path class="st1" d="M36.6,25.5c-6.1,0-11.1,5-11.1,11.1c0,6.1,5,11.1,11.1,11.1s11.1-5,11.1-11.1c0,0,0,0,0,0
			C47.7,30.5,42.7,25.6,36.6,25.5z M36.6,43.8c-4,0-7.2-3.2-7.2-7.2c0-4,3.2-7.2,7.2-7.2c4,0,7.2,3.2,7.2,7.2v0
			C43.8,40.6,40.6,43.8,36.6,43.8z"/>
		<circle class="st1" cx="48.1" cy="25.1" r="2.6"/>
	</g>
</g>
</svg>
