<svg width="73" height="73" viewBox="0 0 73 73" fill="none" xmlns="http://www.w3.org/2000/svg">
<g clip-path="url(#clip0_5393_2909)">
<path d="M36.5 73C56.6584 73 73 56.6584 73 36.5C73 16.3416 56.6584 0 36.5 0C16.3416 0 0 16.3416 0 36.5C0 56.6584 16.3416 73 36.5 73Z" fill="black"/>
<path d="M52.8 33.5C49.4 33.5 46.1 32.4 43.5 30.5V43.3C43.5 49.7 38.3 54.9 31.9 54.9C25.5 54.9 20.3 49.7 20.3 43.3C20.3 36.9 25.5 31.7 31.9 31.7C32.4 31.7 32.9 31.7 33.4 31.8V38.1C30.5 37.2 27.4 38.9 26.6 41.8C25.7 44.7 27.4 47.8 30.3 48.6C33.2 49.5 36.3 47.8 37.1 44.9C37.2 44.4 37.3 43.9 37.3 43.3V18.1H43.8C43.8 23.1 47.8 27.1 52.8 27.1V33.5Z" fill="white"/>
</g>
<defs>
<clipPath id="clip0_5393_2909">
<rect width="73" height="73" fill="white"/>
</clipPath>
</defs>
</svg>
