<svg width="73" height="73" viewBox="0 0 73 73" fill="none" xmlns="http://www.w3.org/2000/svg">
<g clip-path="url(#clip0_5392_2904)">
<path d="M36.5 73C56.6584 73 73 56.6584 73 36.5C73 16.3416 56.6584 0 36.5 0C16.3416 0 0 16.3416 0 36.5C0 56.6584 16.3416 73 36.5 73Z" fill="black"/>
<path d="M52 22.4C49.1 21 46 20.1 42.9 19.5C42.8 19.5 42.8 19.5 42.8 19.6C42.4 20.4 42 21.1 41.7 21.9C38.3 21.4 34.9 21.4 31.5 21.9C31.2 21.1 30.8 20.3 30.4 19.6C30.4 19.5 30.3 19.5 30.3 19.5C27 20.1 24 21 21.1 22.4C21.1 22.4 21.1 22.4 21 22.5C15.2 31.1 13.7 39.5 14.4 47.8C14.4 47.8 14.4 47.9 14.5 47.9C17.9 50.4 21.6 52.3 25.6 53.5C25.7 53.5 25.7 53.5 25.8 53.4C26.7 52.2 27.4 51 28.1 49.7C28.1 49.6 28.1 49.5 28 49.5C26.8 49 25.6 48.5 24.5 47.8C24.4 47.8 24.4 47.7 24.4 47.6C24.6 47.4 24.9 47.2 25.1 47.1H25.2C32.5 50.4 40.4 50.4 47.6 47.1H47.7C47.9 47.3 48.2 47.5 48.4 47.6C48.5 47.6 48.5 47.7 48.4 47.8C47.3 48.4 46.1 49 44.9 49.5C44.8 49.5 44.8 49.6 44.8 49.7C45.5 51 46.2 52.2 47.1 53.4C47.1 53.4 47.2 53.5 47.3 53.5C51.3 52.3 55.1 50.4 58.4 47.9L58.5 47.8C59.5 38.1 57 29.8 52 22.4ZM29.1 42.7C26.9 42.7 25.1 40.7 25.1 38.2C25.1 35.7 26.9 33.7 29.1 33.7C31.3 33.7 33.1 35.7 33.1 38.2C33.1 40.7 31.3 42.7 29.1 42.7ZM43.9 42.7C41.7 42.7 39.9 40.7 39.9 38.2C39.9 35.7 41.7 33.7 43.9 33.7C46.1 33.7 47.9 35.7 47.9 38.2C47.9 40.7 46.2 42.7 43.9 42.7Z" fill="white"/>
</g>
<defs>
<clipPath id="clip0_5392_2904">
<rect width="73" height="73" fill="white"/>
</clipPath>
</defs>
</svg>
