<?xml version="1.0" encoding="utf-8"?>
<!-- Generator: Adobe Illustrator 25.1.0, SVG Export Plug-In . SVG Version: 6.00 Build 0)  -->
<svg version="1.1" id="Layer_1" xmlns="http://www.w3.org/2000/svg" xmlns:xlink="http://www.w3.org/1999/xlink" x="0px" y="0px"
	 viewBox="0 0 73 73" style="enable-background:new 0 0 73 73;" xml:space="preserve">
<style type="text/css">
	.st0{fill:#FFFFFF;}
</style>
<g id="Layer_2_1_">
	<g id="Layer_1-2">
		<circle cx="36.5" cy="36.5" r="36.5"/>
		<path class="st0" d="M57.6,25.9c-0.5-1.9-2-3.4-3.9-3.9c-3.4-0.9-17.2-0.9-17.2-0.9s-13.8,0-17.2,0.9c-1.9,0.5-3.4,2-3.9,3.9
			c-0.9,3.4-0.9,10.6-0.9,10.6s0,7.2,0.9,10.6c0.5,1.9,2,3.4,3.9,3.9c3.4,0.9,17.2,0.9,17.2,0.9s13.8,0,17.2-0.9
			c1.9-0.5,3.4-2,3.9-3.9c0.9-3.4,0.9-10.6,0.9-10.6S58.5,29.3,57.6,25.9z"/>
		<path d="M32.1,43.1l11.4-6.6l-11.4-6.6V43.1z"/>
	</g>
</g>
</svg>
