<?xml version="1.0" encoding="utf-8"?>
<!-- Generator: Adobe Illustrator 26.0.1, SVG Export Plug-In . SVG Version: 6.00 Build 0)  -->
<svg version="1.1" id="Layer_1" xmlns="http://www.w3.org/2000/svg" xmlns:xlink="http://www.w3.org/1999/xlink" x="0px" y="0px"
	 viewBox="0 0 75 75" style="enable-background:new 0 0 75 75;" xml:space="preserve">
<style type="text/css">
	.st0{fill:#FFFFFF;}
</style>
<g id="Layer_2_1_">
	<g id="Layer_1-2">
		<circle cx="37.5" cy="37.5" r="37.5"/>
		<path class="st0" d="M44.8,44.5c-1.8,0-3.3-1.5-3.3-3.3c0-1.8,1.5-3.3,3.3-3.3c1.8,0,3.3,1.5,3.3,3.3C48.2,43,46.7,44.5,44.8,44.5
			z M45.4,50c-2.3,2.3-6.6,2.4-7.9,2.4c-1.3,0-5.6-0.2-7.9-2.4c-0.3-0.3-0.3-0.9,0-1.2c0.3-0.3,0.9-0.3,1.2,0
			c1.4,1.4,4.5,1.9,6.7,1.9c2.2,0,5.3-0.5,6.7-1.9c0.3-0.3,0.9-0.3,1.2,0C45.8,49.1,45.8,49.6,45.4,50z M26.8,41.2
			c0-1.8,1.5-3.3,3.3-3.3c1.8,0,3.3,1.5,3.3,3.3c0,1.8-1.5,3.3-3.3,3.3C28.3,44.5,26.8,43,26.8,41.2z M58.8,37.8
			c0-2.6-2.1-4.7-4.7-4.7c-1.3,0-2.4,0.5-3.2,1.3c-3.2-2.3-7.6-3.8-12.5-4l2.1-10l6.9,1.5c0.1,1.8,1.5,3.2,3.3,3.2
			c1.8,0,3.3-1.5,3.3-3.3c0-1.8-1.5-3.3-3.3-3.3c-1.3,0-2.4,0.8-3,1.9l-7.8-1.6c-0.2,0-0.4,0-0.6,0.1c-0.2,0.1-0.3,0.3-0.4,0.5
			l-2.4,11.2c-5,0.1-9.4,1.6-12.7,4c-0.8-0.8-2-1.3-3.2-1.3c-2.6,0-4.7,2.1-4.7,4.7c0,1.9,1.1,3.5,2.8,4.3c-0.1,0.5-0.1,0.9-0.1,1.4
			c0,7.2,8.4,13,18.7,13s18.7-5.8,18.7-13c0-0.5,0-0.9-0.1-1.4C57.7,41.4,58.8,39.7,58.8,37.8z"/>
	</g>
</g>
</svg>
