<?xml version="1.0" encoding="utf-8"?>
<svg version="1.1" id="Layer_1" xmlns="http://www.w3.org/2000/svg" xmlns:xlink="http://www.w3.org/1999/xlink" x="0px" y="0px"
	 viewBox="0 0 50 50" style="enable-background:new 0 0 50 50;" xml:space="preserve">
<style type="text/css">
	.st0{fill:#C5C6D6;}
</style>
<path class="st0" d="M45.6,42.1L36,30l6.6-6.6c0,0,0,0,0,0c1-1,1-2.6,0-3.5c-0.1-0.1-0.2-0.2-0.3-0.2c-3.3-3.1-7.4-2.8-10.1-1.9
	l-8.5-7.1l-0.6-2.7C23,7.4,22.8,7,22.4,6.7l-2.1-2.1c-1-1-2.6-1-3.5,0L4.6,16.8c-1,1-1,2.6,0,3.5l2.1,2.1C7,22.8,7.4,23,7.9,23.1
	l2.7,0.6l7.1,8.5c-0.9,2.7-1.1,7,2.2,10.3c1,1,2.6,1,3.5,0L30,36l12.1,9.6c1,0.8,2.4,0.7,3.3-0.2S46.4,43.1,45.6,42.1z"/>
</svg>
