<svg width="73" height="73" viewBox="0 0 73 73" fill="none" xmlns="http://www.w3.org/2000/svg">
<g clip-path="url(#clip0_4437_4505)">
<path d="M36.5 73C56.6584 73 73 56.6584 73 36.5C73 16.3416 56.6584 0 36.5 0C16.3416 0 0 16.3416 0 36.5C0 56.6584 16.3416 73 36.5 73Z" fill="black"/>
<path d="M39.8115 33.4542L51.9414 19.3542H49.067L38.5346 31.597L30.1224 19.3542H20.42L33.1409 37.8675L20.42 52.6535H23.2946L34.417 39.7247L43.3009 52.6535H53.0033L39.8108 33.4542H39.8115ZM35.8744 38.0306L34.5855 36.1871L24.3303 21.5181H28.7454L37.0215 33.3564L38.3104 35.2L49.0683 50.588H44.6532L35.8744 38.0313V38.0306Z" fill="white"/>
</g>
<defs>
<clipPath id="clip0_4437_4505">
<rect width="73" height="73" fill="white"/>
</clipPath>
</defs>
</svg>
